<svg width="144" height="144" viewBox="0 0 144 144" fill="none" xmlns="http://www.w3.org/2000/svg">
<path d="M72.4069 18.5079C83.6051 32.7241 89.5829 50.255 89.3661 68.2438V72.5379L93.0607 74.786C97.8344 77.6758 101.395 82.158 103.093 87.4157C101.602 86.3181 100.042 85.3142 98.423 84.4098L88.5708 78.878L86.8004 90.0427C86.6471 91.0293 86.4415 92.0073 86.1847 92.9728H58.5779C58.1674 91.7098 57.8338 90.4468 57.526 89.1333L55.2938 79.0296L46.2113 84.0815C44.6939 84.93 43.2289 85.8662 41.8239 86.8853C43.555 81.6883 47.0408 77.2313 51.7018 74.2555L55.2168 72.0074V68.0164C55.2802 50.1006 61.3299 32.7031 72.4326 18.5079H72.4069ZM72.4326 8C71.8568 8.0014 71.3009 8.20774 70.8675 8.58097L70.6366 8.78304C55.8417 25.0735 47.6263 46.1387 47.5454 67.9912C41.2672 72.0014 36.6199 78.056 34.4157 85.0971C32.2116 92.1382 32.5906 99.718 35.4867 106.512C38.5376 99.8783 43.6376 94.3622 50.0598 90.7499C50.7039 93.4967 51.5616 96.1905 52.6255 98.8077C52.7604 99.3108 53.0595 99.7564 53.4767 100.076C53.8939 100.395 54.4061 100.571 54.9346 100.576H90.5463C91.2647 100.576 91.9831 99.8939 92.3423 98.833C93.3806 96.3448 94.1044 93.7404 94.4975 91.0783C100.932 94.6755 106.036 100.196 109.071 106.84C112.141 100.08 112.617 92.4522 110.409 85.3729C108.201 78.2935 103.459 72.2433 97.0632 68.3448C97.3169 46.3634 89.145 25.0956 74.1773 8.78304C73.9544 8.5377 73.6816 8.34121 73.3766 8.20631C73.0716 8.07142 72.7413 8.00113 72.4069 8H72.4326Z" fill="#4EA8DE"/>
<path d="M72.4069 65.8944C70.4362 65.8943 68.5096 65.3199 66.8701 64.2436C65.2305 63.1672 63.9513 61.637 63.1937 59.846C62.436 58.0549 62.234 56.0832 62.6129 54.1792C62.9918 52.2753 63.9347 50.5244 65.3228 49.1472C66.7109 47.7701 68.4821 46.8283 70.413 46.4407C72.3439 46.053 74.3482 46.2368 76.1732 46.9689C77.9982 47.701 79.5622 48.9486 80.6681 50.5545C81.7739 52.1604 82.3722 54.0526 82.3874 55.9927V55.9927C82.4181 57.25 82.1968 58.5009 81.7363 59.674C81.2758 60.847 80.585 61.9193 79.7034 62.8294C78.8218 63.7396 77.7667 64.4698 76.5984 64.9784C75.4301 65.4869 74.1714 65.7639 72.8943 65.7934C72.7329 65.8189 72.5683 65.8189 72.4069 65.7934V65.8944Z" fill="#4EA8DE"/>
<path d="M86.2872 106.865C85.6452 106.845 85.0056 106.951 84.4059 107.178C83.8062 107.404 83.2584 107.746 82.7948 108.184C82.3312 108.622 81.961 109.146 81.706 109.726C81.451 110.307 81.3163 110.931 81.3098 111.564V126.467C81.3098 127.766 81.8342 129.013 82.7676 129.932C83.7011 130.851 84.9671 131.367 86.2872 131.367C87.6073 131.367 88.8733 130.851 89.8068 129.932C90.7402 129.013 91.2646 127.766 91.2646 126.467V111.766C91.2851 111.136 91.1781 110.508 90.9497 109.919C90.7213 109.331 90.3761 108.793 89.9343 108.336C89.4925 107.88 88.963 107.515 88.3764 107.263C87.7899 107.01 87.1582 106.875 86.5181 106.865H86.2872Z" fill="#5E60CE"/>
<path d="M58.5778 106.865C57.9249 106.831 57.2718 106.927 56.6572 107.147C56.0426 107.366 55.4792 107.705 55.0005 108.144C54.5217 108.582 54.1374 109.111 53.8704 109.698C53.6035 110.286 53.4593 110.92 53.4464 111.564V126.467C53.4464 127.766 53.9708 129.013 54.9043 129.932C55.8377 130.851 57.1037 131.367 58.4238 131.367C59.7439 131.367 61.01 130.851 61.9434 129.932C62.8769 129.013 63.4013 127.766 63.4013 126.467V111.766C63.4218 111.136 63.3147 110.508 63.0863 109.919C62.8579 109.331 62.5128 108.792 62.071 108.336C61.6292 107.88 61.0996 107.515 60.5131 107.263C59.9266 107.01 59.2948 106.875 58.6548 106.865H58.5778Z" fill="#5E60CE"/>
<path d="M72.0476 106.865C71.4074 106.852 70.7708 106.963 70.1741 107.192C69.5775 107.421 69.0325 107.763 68.5702 108.199C68.108 108.636 67.7376 109.157 67.4802 109.735C67.2229 110.312 67.0835 110.933 67.0702 111.564V132.1C67.0702 133.399 67.5946 134.646 68.528 135.565C69.4615 136.484 70.7275 137 72.0476 137C73.3677 137 74.6338 136.484 75.5672 135.565C76.5006 134.646 77.0251 133.399 77.0251 132.1V111.892C77.0456 111.262 76.9385 110.634 76.7101 110.046C76.4817 109.457 76.1366 108.919 75.6948 108.463C75.253 108.007 74.7234 107.642 74.1369 107.389C73.5503 107.136 72.9186 107.001 72.2785 106.992L72.0476 106.865Z" fill="#5E60CE"/>
</svg>
